<?xml version="1.0" encoding="UTF-8" standalone="no"?>
<!DOCTYPE svg PUBLIC "-//W3C//DTD SVG 1.0//EN"
"http://www.w3.org/TR/2001/REC-SVG-20010904/DTD/svg10.dtd">
<!-- Created with Inkscape (http://www.inkscape.org/) -->
<svg
   xmlns="http://www.w3.org/2000/svg"
   xmlns:xlink="http://www.w3.org/1999/xlink"
   version="1.0"
   x="0.0000000"
   y="0.0000000"
   width="535.62500"
   height="625.00000"
   id="svg837">
  <defs
     id="defs839" />
  <g
     transform="matrix(1.587978,0.000000,0.000000,1.587978,-88.94782,31.10516)"
     style="fill:#336699;"
     id="g889">
    <path
       d="M 350.26100,40.923500 C 311.73200,-4.3894700 223.95800,12.107100 154.21100,77.771100 C 116.17600,113.58100 91.360400,156.61600 82.903800,195.69700 C 83.529300,195.65400 84.152400,195.61600 84.777800,195.57800 C 92.993200,158.87200 116.43200,118.77200 152.24500,85.504500 C 218.68400,23.790700 302.52300,8.9665500 339.50700,52.395200 C 365.01000,82.353200 361.55700,132.20000 335.16200,180.49800 C 335.10400,180.52400 335.04200,180.55000 334.98700,180.57400 C 319.57600,209.31000 299.10600,229.47800 278.28900,247.60100 C 226.74700,292.47000 160.55100,295.99800 130.83200,261.02300 C 117.07400,244.83200 112.82500,222.33400 116.87900,197.87500 C 122.30400,165.15600 142.59700,128.92100 174.94000,99.550000 C 182.13200,93.019700 189.57600,87.160300 197.15100,81.954700 C 243.05500,51.879200 294.46300,48.328900 317.76000,75.731600 C 343.73900,106.29100 324.93200,163.76000 275.75900,204.17200 C 275.75200,204.17800 272.57500,206.68500 271.73200,207.45700 L 264.98200,212.89400 L 266.59500,215.43900 L 278.65600,205.98800 L 278.64100,205.97600 C 279.52000,205.27100 280.39800,204.57000 281.26700,203.83900 C 333.11300,160.31200 353.06500,99.097800 325.83500,67.116500 C 320.42800,60.765300 313.54600,56.072900 305.61400,52.926500 C 305.65100,52.892800 305.68400,52.856100 305.72100,52.820600 C 305.16000,52.635400 304.57900,52.479200 304.00900,52.307900 C 279.04900,43.233500 244.12800,49.175000 210.59000,68.466000 C 195.91600,76.573400 181.40600,87.109000 167.78800,99.985500 C 137.11200,128.99300 117.06600,164.01800 109.84400,196.50600 C 103.31700,225.86900 107.26400,253.15900 123.33400,272.06100 C 155.26900,309.61600 222.70400,301.74600 279.37500,254.23200 C 279.41800,254.40400 289.37500,245.97200 293.73500,241.86400 C 363.48200,176.20000 388.78900,86.235500 350.26100,40.923500 z "
       style="stroke-width:0.25000000;"
       id="path890" />
  </g>
  <g
     transform="matrix(1.587978,0.000000,0.000000,1.587978,-88.94779,31.10516)"
     id="g891">
    <g
       id="g892">
      <path
         d="M 123.53100,83.185200 L 108.73600,63.385400 L 130.89400,32.310700 L 164.65100,17.977200 L 181.18600,40.107100 L 146.60700,52.936200 L 123.53100,83.185200 z "
         style="fill:#cccccc;"
         id="path893" />
      <path
         d="M 171.09600,44.603200 L 153.13400,53.862100 L 135.74500,30.518700 L 153.70600,21.259900 L 171.09600,44.603200 z "
         style="fill:#ffffff;"
         id="path894" />
      <path
         d="M 125.94800,86.824500 L 146.35700,57.056300 L 200.16800,129.07500 L 199.10700,153.16000 L 189.81600,171.89900 L 125.94800,86.824500 z "
         style="fill:#6699cc;"
         id="path895" />
      <path
         d="M 181.23000,42.191700 L 242.58400,124.30500 L 220.71100,133.08600 L 200.16800,129.07500 L 146.35700,57.056300 L 181.23000,42.191700 z "
         style="fill:#99ccff;"
         id="path896" />
      <path
         d="M 106.56400,59.262000 L 129.82900,31.291300 L 162.71300,17.004500 L 152.70600,3.6100500 L 118.85500,16.197900 L 97.910200,47.274700"
         style="fill:#ff9999;"
         id="path897" />
      <path
         d="M 257.75800,202.50600 L 243.55500,123.57900 L 220.71100,133.08600 L 200.16800,129.07500 L 199.10700,153.16000 L 189.81600,171.89900"
         style="fill:#ffcc99;"
         id="path898" />
      <path
         d="M 266.16900,214.37200 L 254.66400,124.05000 L 167.31200,7.3693200 C 158.54000,-4.3700000 135.26400,-1.8088400 115.32300,13.091600 C 95.381800,27.990900 86.327600,49.586100 95.098600,61.325800 L 182.56100,178.38100 L 241.60300,203.79700 C 242.18900,204.12200 242.80900,204.39000 243.46100,204.59700 L 266.16900,214.37200 z M 249.98200,181.02300 C 247.70200,181.48100 245.39100,182.48000 243.28800,184.05100 C 241.18700,185.62100 239.57500,187.55100 238.49000,189.60300 L 194.08100,169.48000 C 197.40000,164.30200 206.87500,148.94100 203.86800,133.41900 C 218.63400,139.25000 235.13600,133.19500 241.55300,128.40300 L 242.37800,129.51000 L 249.98200,181.02300 z M 112.79600,63.553400 C 115.80200,54.522600 123.43700,44.438700 134.40300,36.244300 C 144.10200,28.996700 154.48700,24.656400 163.34000,23.524700 L 174.42100,38.383100 C 165.38100,39.335600 154.62300,43.733200 144.60500,51.218400 C 134.01700,59.129200 126.50500,68.809200 123.29000,77.596900 L 112.79600,63.553400 z M 238.33400,124.09000 C 229.22300,131.99200 205.29100,130.79500 200.35700,125.38000 L 151.14000,59.508500 C 151.30200,59.384900 151.45300,59.255000 151.61800,59.132000 C 161.26900,51.920700 171.60000,47.590000 180.42300,46.431800 L 238.33400,124.09000 z M 147.32700,62.605200 L 196.42600,128.31700 C 196.42600,128.31700 203.91900,147.50300 189.48000,166.18200 L 129.97600,86.546000 C 132.55000,78.722800 138.62400,70.112100 147.32700,62.605200 z M 122.28100,22.404400 C 131.49200,15.523100 148.93900,10.151100 156.79400,15.547100 C 147.83900,16.588600 137.25700,20.958300 127.39100,28.330700 C 116.93100,36.145800 109.47900,45.685700 106.19900,54.387500 C 101.70500,44.936200 112.46400,29.739900 122.28100,22.404400 z "
         style="fill:#003366;"
         id="path899" />
    </g>
  </g>
  <path
     d="M 1.9226074e-06,552.13143 L 1.9226074e-06,606.41943 L 21.960002,606.41943 L 21.960002,596.33943 L 10.728002,596.33943 L 10.728002,552.13143 L 1.9226074e-06,552.13143 z "
     style="font-size:72.000000;font-weight:bold;fill:#003366;stroke-width:1.0000000pt;font-family:Futura Std Condensed;"
     id="path965" />
  <path
     d="M 48.168002,565.73943 C 51.696002,565.73943 54.648002,562.78743 54.648002,559.33143 C 54.648002,555.87543 51.912002,552.77943 48.384002,552.77943 C 44.712002,552.77943 41.760002,555.51543 41.760002,559.18743 C 41.760002,562.78743 44.640002,565.73943 48.168002,565.73943 z "
     style="font-size:72.000000;font-weight:bold;fill:#6699cc;stroke-width:1.0000000pt;font-family:Futura Std Condensed;"
     id="path964" />
  <path
     d="M 43.128002,570.05943 L 43.128002,606.41943 L 53.280002,606.41943 L 53.280002,570.05943 L 43.128002,570.05943 z "
     style="font-size:72.000000;font-weight:bold;fill:#6699cc;stroke-width:1.0000000pt;font-family:Futura Std Condensed;"
     id="path963" />
  <path
     d="M 73.944002,552.13143 L 89.640002,606.41943 L 98.424002,606.41943 L 113.47200,552.13143 L 102.24000,552.13143 L 95.688002,578.05143 C 94.824002,581.21943 94.608002,584.31543 94.032002,587.48343 L 93.888002,587.48343 C 93.240002,584.38743 92.880002,581.29143 91.944002,578.19543 L 85.464002,552.13143 L 73.944002,552.13143 z "
     style="font-size:72.000000;font-weight:bold;fill:#003366;stroke-width:1.0000000pt;font-family:Futura Std Condensed;"
     id="path962" />
  <path
     d="M 135.50400,552.13143 L 135.50400,606.41943 L 157.24800,606.41943 L 157.24800,596.33943 L 146.23200,596.33943 L 146.23200,584.09943 L 155.80800,584.09943 L 155.80800,574.01943 L 146.23200,574.01943 L 146.23200,562.21143 L 157.10400,562.21143 L 157.10400,552.13143 L 135.50400,552.13143 z "
     style="font-size:72.000000;font-weight:bold;fill:#003366;stroke-width:1.0000000pt;font-family:Futura Std Condensed;"
     id="path961" />
  <path
     d="M 199.44000,552.13143 L 188.71200,552.13143 L 188.71200,588.85143 C 188.71200,592.45143 189.07200,597.92343 184.03200,597.92343 C 181.80000,597.92343 179.71200,596.62743 178.41600,594.89943 L 178.41600,605.62743 C 180.72000,606.85143 183.81600,607.28343 186.48000,607.28343 C 199.94400,607.28343 199.44000,593.31543 199.44000,588.85143 L 199.44000,552.13143 z "
     style="font-size:72.000000;font-weight:bold;fill:#003366;stroke-width:1.0000000pt;font-family:Futura Std Condensed;"
     id="path960" />
  <path
     d="M 283.60800,552.13143 L 283.60800,592.45143 C 283.60800,602.60343 289.58400,607.28343 299.59200,607.28343 C 315.07200,607.28343 315.72000,597.49143 315.72000,591.73143 L 315.72000,552.13143 L 304.99200,552.13143 L 304.99200,589.57143 C 304.92000,593.60343 304.92000,597.56343 299.66400,597.56343 C 293.83200,597.56343 294.33600,591.37143 294.33600,587.26743 L 294.33600,552.13143 L 283.60800,552.13143 z "
     style="font-size:72.000000;font-weight:bold;fill:#003366;stroke-width:1.0000000pt;font-family:Futura Std Condensed;"
     id="path957" />
  <path
     d="M 396.50400,552.13143 L 396.50400,606.41943 L 407.23200,606.41943 L 407.23200,581.50743 L 407.16000,579.27543 L 406.65600,573.80343 L 406.80000,573.65943 L 420.04800,606.41943 L 430.20000,606.41943 L 430.20000,552.13143 L 419.47200,552.13143 L 419.47200,576.53943 C 419.47200,579.34743 419.68800,582.15543 420.33600,584.74743 L 420.19200,584.89143 L 406.80000,552.13143 L 396.50400,552.13143 z "
     style="font-size:72.000000;font-weight:bold;fill:#003366;stroke-width:1.0000000pt;font-family:Futura Std Condensed;"
     id="path954" />
  <path
     d="M 511.05600,552.13143 L 511.05600,606.41943 L 533.01600,606.41943 L 533.01600,596.33943 L 521.78400,596.33943 L 521.78400,552.13143 L 511.05600,552.13143 z "
     style="font-size:72.000000;font-weight:bold;fill:#003366;stroke-width:1.0000000pt;font-family:Futura Std Condensed;"
     id="path951" />
  <path
     d="M 241.50000,551.28125 C 231.92399,551.28122 222.40625,558.90525 222.40625,579.28125 C 222.40625,599.65723 231.92400,607.28125 241.50000,607.28125 C 251.07599,607.28123 260.56250,599.65725 260.56250,579.28125 C 260.56251,558.90523 251.07600,551.28125 241.50000,551.28125 z M 241.50000,561.21875 C 248.62799,561.21875 249.12500,574.45725 249.12500,579.28125 C 249.12500,583.60123 248.62800,597.34375 241.50000,597.34375 C 234.37199,597.34377 233.84375,583.60125 233.84375,579.28125 C 233.84375,574.45723 234.37200,561.21875 241.50000,561.21875 z "
     style="font-size:72.000000;font-weight:bold;fill:#003366;stroke-width:1.0000000pt;font-family:Futura Std Condensed;"
     id="path983" />
  <path
     d="M 340.71875,552.12500 L 340.71875,606.40625 L 351.43750,606.40625 L 351.43750,581.37500 L 351.56250,581.37500 L 361.00000,606.40625 L 372.31250,606.40625 L 362.87500,581.71875 C 368.20300,578.76673 370.59375,573.66350 370.59375,567.68750 C 370.59374,552.85552 358.34000,552.12500 351.50000,552.12500 L 340.71875,552.12500 z M 351.43750,561.00000 L 352.87500,561.00000 C 358.27499,560.71200 360.15625,563.86200 360.15625,567.75000 C 360.15624,572.21400 358.20850,575.53125 353.31250,575.53125 L 351.43750,575.46875 L 351.43750,561.00000 z "
     style="font-size:72.000000;font-weight:bold;fill:#003366;stroke-width:1.0000000pt;font-family:Futura Std Condensed;"
     id="path999" />
  <path
     d="M 464.75000,552.12500 L 452.15625,606.40625 L 462.81250,606.40625 L 464.75000,597.28125 L 475.62500,597.28125 L 477.65625,606.40625 L 489.09375,606.40625 L 476.06250,552.12500 L 464.75000,552.12500 z M 469.93750,566.09375 L 470.09375,566.09375 L 471.31250,574.31250 L 474.06250,588.78125 L 466.50000,588.78125 L 468.78125,574.31250 L 469.93750,566.09375 z "
     style="font-size:72.000000;font-weight:bold;fill:#003366;stroke-width:1.0000000pt;font-family:Futura Std Condensed;"
     id="path1000" />
</svg>
